# xmcd
#
# Track frame offsets:
# 182
# 1862
# 22475
# 41972
# 43992
# 60642
# 90000
# 106342
# 129492
# 139657
# 148972
# 170490
# 173885
# 191147
# 196950
# 224785
# 227737
# 244740
# 261972
# 268795
# 281282
# 308730
# 314487
# 322425
# 348735
#
# Disc length: 4775 seconds
#
#
# Revision: 2
# Processed by: cddbd v1.5.1PL2 Copyright (c) Steve Scherf et al.
# Submitted via: FreeRIP 2.945 
#
DISCID=9012a519
DTITLE=Andrae Crouch and The Disciples - Live In London
DYEAR=1900
DGENRE=Gospel
TTITLE0=Introduction
TTITLE1=Perfect Peace
TTITLE2=I Surrender All
TTITLE3=Greetings By Andrae
TTITLE4=You Don't Have To Jump No Pews
TTITLE5=Take A Little Time
TTITLE6=Tell Them
TTITLE7=If I Was A Tree
TTITLE8=Hallelujah
TTITLE9=Revive Us Again
TTITLE10=Power In The Blood
TTITLE11=Reprise
TTITLE12=I Just Want To Know You
TTITLE13=Andrae Talking
TTITLE14=Just Like He Said He Would
TTITLE15=Andrae Talking
TTITLE16=I'll Keep On Loving You Lord
TTITLE17=You Gave To Me
TTITLE18=Oh Taste And See
TTITLE19=Praise God, Praise God
TTITLE20=This Is Another Day
TTITLE21=Andrae Talking
TTITLE22=Praise God Reprise
TTITLE23=Well Done
TTITLE24=My Tribute
EXTD=
EXTT0=
EXTT1=
EXTT2=
EXTT3=
EXTT4=
EXTT5=
EXTT6=
EXTT7=
EXTT8=
EXTT9=
EXTT10=
EXTT11=
EXTT12=
EXTT13=
EXTT14=
EXTT15=
EXTT16=
EXTT17=
EXTT18=
EXTT19=
EXTT20=
EXTT21=
EXTT22=
EXTT23=
EXTT24=
PLAYORDER=
